# Blender 4.0.1
# www.blender.org
mtllib scene2.mtl
o Cube
v 1.000000 1.000000 -1.000000
v 1.000000 -1.000000 -1.000000
v 1.000000 1.000000 1.000000
v 1.000000 -1.000000 1.000000
v -1.000000 1.000000 -1.000000
v -1.000000 -1.000000 -1.000000
v -1.000000 1.000000 1.000000
v -1.000000 -1.000000 1.000000
v -1.789191 -2.132432 -0.048052
v 1.789191 2.132432 -0.048052
v -1.789191 2.132432 -0.048052
v 1.789191 -2.132432 -0.048052
v 1.263797 0.043845 -1.281150
v -1.263797 0.043845 1.290303
v 1.263797 0.043845 1.290303
v -1.263797 0.043845 -1.281150
v 2.261175 0.093497 -0.057205
v -2.261175 0.093497 -0.057205
vn -0.0000 0.6792 0.7339
vn -0.0000 0.2905 0.9569
vn -0.7123 0.3716 -0.5955
vn -0.0000 -0.6792 0.7339
vn 0.7388 0.3740 0.5606
vn -0.0000 0.2821 -0.9594
vn 0.7123 0.3716 -0.5955
vn -0.0000 -0.6435 -0.7655
vn -0.7388 0.3740 0.5606
vn -0.0000 0.6435 -0.7655
vn -0.7072 -0.1471 0.6915
vn 0.6700 -0.1451 -0.7280
vn -0.0000 -0.2601 -0.9656
vn 0.7072 -0.1471 0.6915
vn -0.6700 -0.1451 -0.7280
vn -0.0000 -0.2679 0.9634
vn -0.6610 0.1563 -0.7339
vn 0.6988 0.1586 0.6976
vn 0.6610 0.1563 -0.7339
vn -0.6988 0.1586 0.6976
vn -0.7604 -0.3452 0.5501
vn 0.7349 -0.3433 -0.5849
vn 0.7604 -0.3452 0.5501
vn -0.7349 -0.3433 -0.5849
vt 0.875000 0.618994
vt 0.625000 0.750000
vt 0.625000 0.618994
vt 0.505481 1.000000
vt 0.505481 0.750000
vt 0.505481 0.131006
vt 0.625000 0.250000
vt 0.505481 0.250000
vt 0.375000 0.618994
vt 0.125000 0.750000
vt 0.125000 0.618994
vt 0.505481 0.618994
vt 0.505481 0.500000
vt 0.625000 0.500000
vt 0.375000 0.500000
vt 0.125000 0.500000
vt 0.625000 0.000000
vt 0.505481 0.000000
vt 0.875000 0.500000
vt 0.375000 0.000000
vt 0.375000 0.131006
vt 0.375000 0.250000
vt 0.375000 0.750000
vt 0.375000 1.000000
vt 0.875000 0.750000
vt 0.625000 1.000000
vt 0.625000 0.131006
s 0
usemtl Material
f 11/1/1 3/2/1 10/3/1
f 3/2/2 14/4/2 15/5/2
f 18/6/3 5/7/3 16/8/3
f 12/9/4 8/10/4 9/11/4
f 17/12/5 3/2/5 15/5/5
f 5/7/6 13/13/6 16/8/6
f 1/14/7 17/12/7 13/13/7
f 2/15/8 9/11/8 6/16/8
f 7/17/9 18/6/9 14/18/9
f 5/19/10 10/3/10 1/14/10
f 8/20/11 18/6/11 9/21/11
f 2/15/12 17/12/12 12/9/12
f 16/8/13 2/15/13 6/22/13
f 17/12/14 4/23/14 12/9/14
f 18/6/15 6/22/15 9/21/15
f 15/5/16 8/24/16 4/23/16
f 11/1/1 7/25/1 3/2/1
f 3/2/2 7/26/2 14/4/2
f 18/6/17 11/27/17 5/7/17
f 12/9/4 4/23/4 8/10/4
f 17/12/18 10/3/18 3/2/18
f 5/7/6 1/14/6 13/13/6
f 1/14/19 10/3/19 17/12/19
f 2/15/8 12/9/8 9/11/8
f 7/17/20 11/27/20 18/6/20
f 5/19/10 11/1/10 10/3/10
f 8/20/21 14/18/21 18/6/21
f 2/15/22 13/13/22 17/12/22
f 16/8/13 13/13/13 2/15/13
f 17/12/23 15/5/23 4/23/23
f 18/6/24 16/8/24 6/22/24
f 15/5/16 14/4/16 8/24/16
